# xmcd
#
# Track frame offsets:
#	150
#	16665
#	35555
#	52255
#	72052
#	87235
#	105097
#	123600
#	136972
#	148507
#	161597
#	173312
#	188405
#	201397
#	217227
#	227920
#	243922
#	253835
#	270282
#
# Disc length: 3869 seconds
#
# Revision: 1
# Processed by: cddbd v1.5.2PL0 Copyright (c) Steve Scherf et al.
# Submitted via: audiograbber 1.83.01
#
DISCID=050f1b13
DTITLE=Roto Noto - Logger Rhytms
DYEAR=1900
DGENRE=
TTITLE0=Unfortunately -True Spirit
TTITLE1=Young Hearts Run Free -True Spirit
TTITLE2=I Care -Hallie Ross
TTITLE3=Changes For The Better -Hallie Ross
TTITLE4=Take Away The Night -Jenny Lee West
TTITLE5=Every Time We Touch -Jenny Lee West
TTITLE6=When I Need You (You´re not There) -Randy Moisan
TTITLE7=Long Cool Woman -Jack Diamond Band
TTITLE8=57 Chevy -Lone Star Oasis
TTITLE9=It´s Over -Lone Star Oasis
TTITLE10=Bud The Spud -Danny Lockwood
TTITLE11=Take Me In Your Arm Tonight -Diane Raeside
TTITLE12=Miss Behave -Randall Cousin
TTITLE13=He´s Gonna Break Your Heart -Kim Doolittle
TTITLE14=It´ll Be A Cold Day -Ray Sanders
TTITLE15=Love Me Down Easy -Ray Sanders
TTITLE16=Even Though -Cari Brewster
TTITLE17=Changing My Life -Deborah Lund
TTITLE18=You´re My Everything -Frank Rondell
EXTD=
EXTT0=
EXTT1=
EXTT2=
EXTT3=
EXTT4=
EXTT5=
EXTT6=
EXTT7=
EXTT8=
EXTT9=
EXTT10=
EXTT11=
EXTT12=
EXTT13=
EXTT14=
EXTT15=
EXTT16=
EXTT17=
EXTT18=
PLAYORDER=
